<svg role="img" viewBox="0 0 24 24" xmlns="http://www.w3.org/2000/svg" id="Astro--Streamline-Simple-Icons" height="24" width="24">
  <desc>
    Astro Streamline Icon: https://streamlinehq.com
  </desc>
  <title>Astro</title>
  <path d="M8.358 20.162c-1.186 -1.07 -1.532 -3.316 -1.038 -4.944 0.856 1.026 2.043 1.352 3.272 1.535 1.897 0.283 3.76 0.177 5.522 -0.678 0.202 -0.098 0.388 -0.229 0.608 -0.36 0.166 0.473 0.209 0.95 0.151 1.437 -0.14 1.185 -0.738 2.1 -1.688 2.794 -0.38 0.277 -0.782 0.525 -1.175 0.787 -1.205 0.804 -1.531 1.747 -1.078 3.119l0.044 0.148a3.158 3.158 0 0 1 -1.407 -1.188 3.31 3.31 0 0 1 -0.544 -1.815c-0.004 -0.32 -0.004 -0.642 -0.048 -0.958 -0.106 -0.769 -0.472 -1.113 -1.161 -1.133 -0.707 -0.02 -1.267 0.411 -1.415 1.09 -0.012 0.053 -0.028 0.104 -0.045 0.165h0.002zm-5.961 -4.445s3.24 -1.575 6.49 -1.575l2.451 -7.565c0.092 -0.366 0.36 -0.614 0.662 -0.614 0.302 0 0.57 0.248 0.662 0.614l2.45 7.565c3.85 0 6.491 1.575 6.491 1.575L16.088 0.727C15.93 0.285 15.663 0 15.303 0H8.697c-0.36 0 -0.615 0.285 -0.784 0.727l-5.516 14.99z" fill="#FFD8E4" stroke-width="1"></path>
</svg>