<svg xmlns="http://www.w3.org/2000/svg" fill="none" viewBox="0 0 16 16" id="File-C-Sharp-Duotone--Streamline-Phosphor" height="16" width="16">
  <desc>
    File C Sharp Duotone Streamline Icon: https://streamlinehq.com
  </desc>
  <g id="file-c-sharp-duotone">
    <path id="Vector" fill="#c4c4c3" d="M14.33230625 4.98461875h-4.2215375V0.763075l4.2215375 4.2215375Z" stroke-width="0.0625"></path>
    <path id="Vector_2" fill="#FFD8E4" d="M2.27076875 11.92c0 0.82923125 0.5412625 1.50769375 1.20615625 1.50769375 0.145575 -0.00301875 0.289 -0.03573125 0.42148125 -0.09611875 0.13248125 -0.06038125 0.251225 -0.147225 0.34895 -0.255175 0.11110625 -0.11315 0.26233125 -0.17798125 0.4209 -0.18046875 0.15858125 -0.0024875 0.31174375 0.05759375 0.42634375 0.1672 0.11459375 0.1096875 0.1813875 0.26 0.1859125 0.4185375 0.00453125 0.15853125 -0.0535625 0.31246875 -0.1617125 0.4284875 -0.20999375 0.226075 -0.46393125 0.40685 -0.7462625 0.53130625 -0.282325 0.1243875 -0.5870875 0.18989375 -0.8956125 0.19238125 -1.3305375 0 -2.41230625 -1.21745625 -2.41230625 -2.71384375s1.08176875 -2.71384375 2.41230625 -2.71384375c0.308525 0.0024875 0.6132875 0.06799375 0.8956125 0.19238125 0.28233125 0.12445625 0.53626875 0.30523125 0.7462625 0.53130625 0.10815 0.11601875 0.16624375 0.26995625 0.1617125 0.4284875 -0.004525 0.1585375 -0.07131875 0.30885 -0.1859125 0.4185375 -0.1146 0.10960625 -0.2677625 0.1696875 -0.42634375 0.1672 -0.15856875 -0.0024875 -0.30979375 -0.06731875 -0.4209 -0.18046875 -0.097725 -0.10795 -0.21646875 -0.19479375 -0.34895 -0.255175 -0.13248125 -0.0603875 -0.27590625 -0.0931 -0.42148125 -0.09611875 -0.66489375 0 -1.20615625 0.6784625 -1.20615625 1.50769375ZM14.93538125 4.98461875v10.25230625c0 0.1599625 -0.06354375 0.313375 -0.176625 0.42645s-0.26648125 0.176625 -0.42645 0.176625 -0.313375 -0.06355 -0.42645 -0.176625 -0.176625 -0.2664875 -0.176625 -0.42645V5.58769375h-3.6184625c-0.1599625 0 -0.313375 -0.06354375 -0.42645 -0.1766375 -0.113075 -0.11309375 -0.176625 -0.2665 -0.176625 -0.4264375V1.36615625H2.87384375v5.4276875c0 0.15996875 -0.0635375 0.313375 -0.17663125 0.42645625 -0.1131 0.113075 -0.2665 0.176625 -0.42644375 0.176625s-0.31334375 -0.06355 -0.42644375 -0.176625c-0.11309375 -0.11308125 -0.17663125 -0.2664875 -0.17663125 -0.42645625v-5.4276875c0 -0.31989375 0.127075 -0.62668125 0.353275 -0.85288125C2.24716875 0.287075 2.55395 0.16 2.87384375 0.16h7.236925c0.07923125 -0.0000625 0.15770625 0.01548125 0.23090625 0.04575 0.07319375 0.03026875 0.1397625 0.0746625 0.19576875 0.13065l4.2215375 4.2215375c0.0560125 0.05605 0.1004125 0.122575 0.13064375 0.1957875 0.03030625 0.07321875 0.04583125 0.15166875 0.04575625 0.2308875Zm-4.2215375 -0.60308125h2.1627875l-2.1627875 -2.16278125v2.16278125Zm0.60308125 6.63385v1.20615h0.603075c0.15996875 0 0.313375 0.06355 0.42645 0.176625s0.176625 0.2664875 0.176625 0.42645625 -0.06355 0.31336875 -0.176625 0.42645 -0.26648125 0.176625 -0.42645 0.176625h-0.603075v0.603075c0 0.15996875 -0.06355 0.313375 -0.17663125 0.42645s-0.26648125 0.176625 -0.42645 0.176625 -0.31336875 -0.06354375 -0.42645 -0.176625 -0.176625 -0.26648125 -0.176625 -0.42645v-0.603075h-1.20615625v0.603075c0 0.15996875 -0.06354375 0.313375 -0.176625 0.42645s-0.26648125 0.176625 -0.42645 0.176625 -0.313375 -0.06354375 -0.42645 -0.176625 -0.176625 -0.26648125 -0.176625 -0.42645v-0.603075h-0.603075c-0.15996875 0 -0.313375 -0.06355 -0.42645625 -0.176625s-0.176625 -0.2664875 -0.176625 -0.42645 0.06355 -0.313375 0.176625 -0.42645625 0.2664875 -0.176625 0.42645625 -0.176625h0.603075v-1.20615h-0.603075c-0.15996875 0 -0.313375 -0.06355 -0.42645625 -0.17663125s-0.176625 -0.26648125 -0.176625 -0.42645 0.06355 -0.313375 0.176625 -0.42645 0.2664875 -0.176625 0.42645625 -0.176625h0.603075v-0.603075c0 -0.15996875 0.06355 -0.313375 0.176625 -0.42645s0.2664875 -0.17663125 0.42645 -0.17663125 0.313375 0.06355 0.42645 0.17663125 0.176625 0.26648125 0.176625 0.42645v0.603075h1.20615625v-0.603075c0 -0.15996875 0.06355 -0.313375 0.176625 -0.42645s0.2664875 -0.17663125 0.42645 -0.17663125 0.313375 0.06355 0.42645 0.17663125 0.17663125 0.26648125 0.17663125 0.42645v0.603075h0.603075c0.15996875 0 0.313375 0.06355 0.42645 0.176625s0.176625 0.2664875 0.176625 0.42645 -0.06355 0.313375 -0.176625 0.42645 -0.26648125 0.17663125 -0.42645 0.17663125h-0.603075Zm-1.20615625 0h-1.20615625v1.20615h1.20615625v-1.20615Z" stroke-width="0.0625"></path>
  </g>
</svg>