<svg xmlns="http://www.w3.org/2000/svg" fill="none" viewBox="0 0 16 16" id="File-Cpp-Duotone--Streamline-Phosphor" height="16" width="16">
  <desc>
    File Cpp Duotone Streamline Icon: https://streamlinehq.com
  </desc>
  <g id="file-cpp-duotone">
    <path id="Vector" fill="#c4c4c3" d="M14.53333125 5.38666875H9.96V0.81333125l4.57333125 4.5733375Z" stroke-width="0.0625"></path>
    <path id="Vector_2" fill="#FFD8E4" d="M1.46666875 12.9c0 0.89833125 0.5863625 1.63333125 1.3066625 1.63333125 0.15770625 -0.0032625 0.3130875 -0.03870625 0.45660625 -0.104125 0.143525 -0.0654125 0.2721625 -0.15949375 0.37803125 -0.2764375 0.12036875 -0.12258125 0.2841875 -0.19281875 0.455975 -0.1955125 0.17179375 -0.00269375 0.337725 0.06239375 0.461875 0.1811375 0.1241375 0.118825 0.1965 0.28166875 0.20140625 0.4534125 0.00490625 0.17174375 -0.05803125 0.33850625 -0.17519375 0.46419375 -0.2274875 0.24491875 -0.50259375 0.44075625 -0.80845 0.5755875 -0.30585 0.13475 -0.6360125 0.20571875 -0.97025 0.2084125 -1.4414125 0 -2.61333125 -1.31891875 -2.61333125 -2.94s1.17191875 -2.94 2.61333125 -2.94c0.3342375 0.00269375 0.6644 0.0736625 0.97025 0.2084125 0.30585625 0.13483125 0.5809625 0.33066875 0.80845 0.5755875 0.1171625 0.1256875 0.1801 0.29245 0.17519375 0.46419375 -0.00490625 0.17174375 -0.07726875 0.3345875 -0.20140625 0.4534125 -0.12415 0.11874375 -0.29008125 0.18383125 -0.461875 0.1811375 -0.1717875 -0.00269375 -0.33560625 -0.07293125 -0.455975 -0.1955125 -0.10586875 -0.11694375 -0.23450625 -0.211025 -0.37803125 -0.2764375 -0.14351875 -0.06541875 -0.2989 -0.1008625 -0.45660625 -0.104125 -0.7203 0 -1.3066625 0.735 -1.3066625 1.63333125Zm-0.6533375 -5.55333125v-5.88c0 -0.34655625 0.13766875 -0.67890625 0.38271875 -0.92395625C1.44109375 0.29766875 1.77345 0.16 2.12 0.16h7.84c0.08583125 -0.0000625 0.17084375 0.016775 0.25014375 0.0495625 0.0793 0.03279375 0.1514125 0.08088125 0.2120875 0.1415375l4.5733375 4.57333125c0.060675 0.06071875 0.108775 0.13279375 0.141525 0.21210625 0.03283125 0.0793125 0.04965625 0.16430625 0.049575 0.25013125v1.96c0 0.17329375 -0.06885 0.3394875 -0.19135 0.4619875S14.70663125 8 14.53333125 8s-0.3394875 -0.06884375 -0.4619875 -0.19134375 -0.19134375 -0.28869375 -0.19134375 -0.4619875V6.04h-3.92c-0.1733 0 -0.3394875 -0.0688375 -0.4619875 -0.19135 -0.1225 -0.122525 -0.19134375 -0.2887125 -0.19134375 -0.46198125v-3.92H2.12v5.88c0 0.17329375 -0.0688375 0.3394875 -0.19135625 0.4619875C1.806125 7.93115625 1.6399375 8 1.46666875 8s-0.33945625 -0.06884375 -0.46198125 -0.19134375c-0.12251875 -0.1225 -0.19135625 -0.28869375 -0.19135625 -0.4619875Zm9.8 -2.6133375h2.34301875l-2.34301875 -2.3430125v2.3430125Zm-0.98 7.5133375h-0.98v-0.98c0 -0.1733 -0.06884375 -0.3394875 -0.19134375 -0.4619875s-0.28869375 -0.19135 -0.4619875 -0.19135 -0.3394875 0.06885 -0.4619875 0.19135 -0.19134375 0.2886875 -0.19134375 0.4619875v0.98h-0.98c-0.1733 0 -0.3394875 0.06884375 -0.4619875 0.19134375s-0.19135 0.28869375 -0.19135 0.4619875 0.06885 0.3394875 0.19135 0.4619875 0.2886875 0.19134375 0.4619875 0.19134375h0.98v0.98c0 0.1733 0.06884375 0.3394875 0.19134375 0.4619875s0.2886875 0.19135 0.4619875 0.19135 0.3394875 -0.06885 0.4619875 -0.19135 0.19134375 -0.2886875 0.19134375 -0.4619875v-0.98h0.98c0.1733 0 0.3394875 -0.06884375 0.4619875 -0.19134375s0.19135 -0.28869375 0.19135 -0.4619875 -0.06885 -0.3394875 -0.19135 -0.4619875 -0.2886875 -0.19134375 -0.4619875 -0.19134375Zm5.5533375 0h-0.98v-0.98c0 -0.1733 -0.06885 -0.3394875 -0.19135 -0.4619875s-0.2886875 -0.19135 -0.4619875 -0.19135 -0.3394875 0.06885 -0.4619875 0.19135 -0.19134375 0.2886875 -0.19134375 0.4619875v0.98h-0.98c-0.1733 0 -0.3394875 0.06884375 -0.4619875 0.19134375s-0.19134375 0.28869375 -0.19134375 0.4619875 0.06884375 0.3394875 0.19134375 0.4619875 0.2886875 0.19134375 0.4619875 0.19134375h0.98v0.98c0 0.1733 0.06884375 0.3394875 0.19134375 0.4619875s0.28869375 0.19135 0.4619875 0.19135 0.3394875 -0.06885 0.4619875 -0.19135 0.19135 -0.2886875 0.19135 -0.4619875v-0.98h0.98c0.17329375 0 0.3394875 -0.06884375 0.4619875 -0.19134375s0.19134375 -0.28869375 0.19134375 -0.4619875 -0.06884375 -0.3394875 -0.19134375 -0.4619875 -0.28869375 -0.19134375 -0.4619875 -0.19134375Z" stroke-width="0.0625"></path>
  </g>
</svg>