<svg viewBox="0 0 16 16" fill="none" xmlns="http://www.w3.org/2000/svg" id="Html3--Streamline-Unicons" height="16" width="16">
  <desc>
    Html3 Streamline Icon: https://streamlinehq.com
  </desc>
  <path d="m1.0966 0.15999999999999998 1.2565333333333333 14.107533333333333 5.6386 1.5724666666666665 5.654133333333332 -1.5782666666666665L14.9034 0.15999999999999998H1.0966Zm11.196599999999998 3.2321999999999997 -0.4184 4.699866666666667 0.0014666666666666667 0.0254 -0.002 0.05806666666666666 -0.29733333333333334 3.2855333333333334 -0.03273333333333333 0.29186666666666666L8 12.733199999999998l-0.0028666666666666667 0.0029333333333333334 -3.537933333333333 -0.9862 -0.2397333333333333 -2.716666666666667h1.7349999999999999l0.12306666666666666 1.3816 1.9229333333333332 0.5208666666666666 -0.00046666666666666666 0.0008666666666666666 1.9297333333333333 -0.5286 0.20413333333333333 -2.249533333333333H6.099466666666666l-0.0346 -0.3803333333333333 -0.07913333333333333 -0.8909333333333334 -0.040933333333333335 -0.47846666666666665h4.3424l0.15806666666666666 -1.7496H3.8309333333333333l-0.03473333333333333 -0.37986666666666663 -0.0786 -0.8914 -0.04153333333333333 -0.4784h8.658533333333333l-0.0414 0.4827333333333333Z" fill="#FFD8E4" stroke-width="0.6667"></path>
</svg>