<svg xmlns="http://www.w3.org/2000/svg" viewBox="0 0 24 24" fill="none" stroke="#FFD8E4" stroke-linecap="round" stroke-linejoin="round" id="Brand-Docker--Streamline-Tabler" height="24" width="24">
  <desc>
    Brand Docker Streamline Icon: https://streamlinehq.com
  </desc>
  <path d="M22 12.54c-1.804 -0.345 -2.701 -1.08 -3.523 -2.94 -0.487 0.696 -1.102 1.568 -0.92 2.4 0.028 0.238 -0.32 1 -0.557 1H3c0 5.208 3.164 7 6.196 7 4.124 0.022 7.828 -1.376 9.854 -5 1.146 -0.101 2.296 -1.505 2.95 -2.46z" stroke-width="2"></path>
  <path d="M5 10h3v3H5z" stroke-width="2"></path>
  <path d="M8 10h3v3H8z" stroke-width="2"></path>
  <path d="M11 10h3v3h-3z" stroke-width="2"></path>
  <path d="M8 7h3v3H8z" stroke-width="2"></path>
  <path d="M11 7h3v3h-3z" stroke-width="2"></path>
  <path d="M11 4h3v3h-3z" stroke-width="2"></path>
  <path d="M4.571 18c1.5 0 2.047 -0.074 2.958 -0.78" stroke-width="2"></path>
  <path d="m10 16 0 0.01" stroke-width="2"></path>
</svg>