<svg xmlns="http://www.w3.org/2000/svg" viewBox="0 0 24 24" fill="none" stroke="#FFD8E4" stroke-linecap="round" stroke-linejoin="round" id="Brand-Firebase--Streamline-Tabler" height="24" width="24">
  <desc>
    Brand Firebase Streamline Icon: https://streamlinehq.com
  </desc>
  <path d="m4.53 17.05 6.15 -11.72h-0.02c0.38 -0.74 1.28 -1.02 2.01 -0.63 0.26 0.14 0.48 0.36 0.62 0.62l1.06 2.01" stroke-width="2"></path>
  <path d="M15.47 6.45c0.58 -0.59 1.53 -0.59 2.11 -0.01 0.22 0.22 0.36 0.5 0.41 0.81l1.5 9.11c0.1 0.62 -0.2 1.24 -0.76 1.54l-6.07 2.9c-0.46 0.25 -1.01 0.26 -1.46 0l-6.02 -2.92c-0.55 -0.31 -0.85 -0.92 -0.75 -1.54L6.39 4.3c0.12 -0.82 0.89 -1.38 1.7 -1.25 0.46 0.07 0.87 0.36 1.09 0.77l1.24 1.76" stroke-width="2"></path>
  <path d="M4.57 17.18 15.5 6.5" stroke-width="2"></path>
</svg>