<svg version="1.1" id="Layer_1" xmlns="http://www.w3.org/2000/svg" xmlns:xlink="http://www.w3.org/1999/xlink" x="0px" y="0px"
	 width="100%" viewBox="0 0 280 280" enable-background="new 0 0 280 280" xml:space="preserve">
<path fill="none" opacity="1.000000" stroke="none" 
	d="
M281.000000,3.000000 
	C281.000000,95.618126 281.000000,188.236252 281.000000,280.927185 
	C187.764145,280.927185 94.528214,280.927185 1.000000,280.927185 
	C1.000000,188.645981 1.000000,96.291649 1.468657,3.468350 
	C94.958206,2.999590 187.979111,2.999795 281.000000,3.000000 
M122.125648,99.000023 
	C120.852722,100.306427 119.178696,101.402435 118.366600,102.950577 
	C104.543098,129.303375 90.823044,155.710434 77.095627,182.113571 
	C76.355804,183.536560 75.752007,185.030258 74.883522,186.931992 
	C87.700363,186.931992 99.994431,186.820923 112.283905,187.009216 
	C115.399414,187.056946 116.907120,186.011154 118.327583,183.261276 
	C132.137650,156.526489 146.121521,129.881516 160.041168,103.203293 
	C160.703415,101.934029 161.227890,100.592880 161.946213,98.997124 
	C148.670074,98.997124 135.840546,98.997124 122.125648,99.000023 
M156.992142,123.434105 
	C146.030182,144.446655 135.068222,165.459213 123.865959,186.932388 
	C129.996414,186.932388 135.322861,186.866714 140.647202,186.944565 
	C157.305542,187.188095 169.344788,179.634155 177.022858,165.102646 
	C187.974915,144.374725 198.724136,123.539574 209.540833,102.740250 
	C210.110352,101.645134 210.501495,100.457245 211.106461,98.996910 
	C197.922241,98.996910 185.258026,98.897934 172.599823,99.128624 
	C171.104111,99.155884 169.048172,100.654938 168.263657,102.043396 
	C164.421967,108.842522 160.922958,115.835266 156.992142,123.434105 
M50.115086,138.627731 
	C41.859470,154.513046 33.603851,170.398346 25.124708,186.713760 
	C39.348785,186.713760 52.937904,186.713760 66.842094,186.713760 
	C81.930855,157.799362 97.113564,128.704941 112.616669,98.996529 
	C106.121635,98.996529 100.494736,99.022659 94.868149,98.991570 
	C78.785553,98.902710 67.359032,106.535522 59.729351,120.305832 
	C56.507683,126.120399 53.556904,132.085068 50.115086,138.627731 
M216.381256,128.790405 
	C216.896088,129.830399 217.368637,130.893921 217.932297,131.906723 
	C223.427444,141.780518 234.534241,145.605469 244.353897,141.020935 
	C254.438446,136.312744 259.301025,123.927582 255.312286,113.109566 
	C251.403488,102.508278 240.553284,96.855415 230.112411,99.980652 
	C218.806488,103.364822 212.853760,115.300789 216.381256,128.790405 
z"/>
<path fill="#FFD8E4" opacity="1.000000" stroke="none" 
	d="
M281.000000,2.500001 
	C187.979111,2.999795 94.958206,2.999590 1.468657,2.999693 
	C1.166667,2.333333 1.229735,1.149261 1.518317,1.091479 
	C2.640014,0.866886 3.833333,1.000000 5.000000,1.000000 
	C95.666664,1.000000 186.333328,0.995718 276.999969,1.041541 
	C278.333496,1.042215 279.666656,1.666668 281.000000,2.500001 
z"/>
<path fill="#010202" opacity="1.000000" stroke="none" 
	d="
M122.568329,98.998573 
	C135.840546,98.997124 148.670074,98.997124 161.946213,98.997124 
	C161.227890,100.592880 160.703415,101.934029 160.041168,103.203293 
	C146.121521,129.881516 132.137650,156.526489 118.327583,183.261276 
	C116.907120,186.011154 115.399414,187.056946 112.283905,187.009216 
	C99.994431,186.820923 87.700363,186.931992 74.883522,186.931992 
	C75.752007,185.030258 76.355804,183.536560 77.095627,182.113571 
	C90.823044,155.710434 104.543098,129.303375 118.366600,102.950577 
	C119.178696,101.402435 120.852722,100.306427 122.568329,98.998573 
z"/>
<path fill="#010202" opacity="1.000000" stroke="none" 
	d="
M157.147491,123.096840 
	C160.922958,115.835266 164.421967,108.842522 168.263657,102.043396 
	C169.048172,100.654938 171.104111,99.155884 172.599823,99.128624 
	C185.258026,98.897934 197.922241,98.996910 211.106461,98.996910 
	C210.501495,100.457245 210.110352,101.645134 209.540833,102.740250 
	C198.724136,123.539574 187.974915,144.374725 177.022858,165.102646 
	C169.344788,179.634155 157.305542,187.188095 140.647202,186.944565 
	C135.322861,186.866714 129.996414,186.932388 123.865959,186.932388 
	C135.068222,165.459213 146.030182,144.446655 157.147491,123.096840 
z"/>
<path fill="#010202" opacity="1.000000" stroke="none" 
	d="
M50.299042,138.304626 
	C53.556904,132.085068 56.507683,126.120399 59.729351,120.305832 
	C67.359032,106.535522 78.785553,98.902710 94.868149,98.991570 
	C100.494736,99.022659 106.121635,98.996529 112.616669,98.996529 
	C97.113564,128.704941 81.930855,157.799362 66.842094,186.713760 
	C52.937904,186.713760 39.348785,186.713760 25.124708,186.713760 
	C33.603851,170.398346 41.859470,154.513046 50.299042,138.304626 
z"/>
<path fill="#020303" opacity="1.000000" stroke="none" 
	d="
M216.252594,128.409882 
	C212.853760,115.300789 218.806488,103.364822 230.112411,99.980652 
	C240.553284,96.855415 251.403488,102.508278 255.312286,113.109566 
	C259.301025,123.927582 254.438446,136.312744 244.353897,141.020935 
	C234.534241,145.605469 223.427444,141.780518 217.932297,131.906723 
	C217.368637,130.893921 216.896088,129.830399 216.252594,128.409882 
z"/>
</svg>