<svg xmlns="http://www.w3.org/2000/svg" fill="none" viewBox="0 0 24 24" id="Git-Icon--Streamline-Svg-Logos" height="24" width="24">
  <desc>
    Git Icon Streamline Icon: https://streamlinehq.com
  </desc>
  <path fill="#FFD8E4" d="M23.30675 10.95315 13.0463 0.693465c-0.59045 -0.59098175 -1.548875 -0.59098175 -2.140125 0l-2.130575 2.130585 2.70275 2.702725c0.6281 -0.2122 1.348275 -0.069875 1.849 0.430875 0.503075 0.503825 0.644375 1.230175 0.427 1.86035l2.60475 2.60475c0.630175 -0.2171 1.3573 -0.076575 1.860625 0.427525 0.7034 0.70315 0.7034 1.842825 0 2.546475 -0.703675 0.703675 -1.84335 0.703675 -2.54725 0 -0.5291 -0.5296 -0.659825 -1.30675 -0.391925 -1.9586l-2.429175 -2.42915 -0.00025 6.3925c0.17145 0.0851 0.333375 0.1983 0.476225 0.340625 0.7034 0.70315 0.7034 1.842825 0 2.547 -0.70365 0.7034 -1.84385 0.7034 -2.546475 0 -0.7034 -0.704175 -0.7034 -1.84385 0 -2.547 0.173775 -0.173525 0.3749 -0.304775 0.589425 -0.392975V8.897075c-0.214525 -0.08765 -0.415375 -0.218125 -0.589425 -0.39295 -0.532975 -0.5322 -0.661125 -1.314225 -0.38805 -1.96865L7.72875 3.8709 0.69343 10.9057c-0.59124 0.5915 -0.59124 1.549925 0 2.1409L10.953875 23.30655c0.590725 0.590975 1.5489 0.590975 2.1404 0l10.212475 -10.21225c0.591 -0.59125 0.591 -1.550175 0 -2.14115Z" stroke-width="0.25"></path>
</svg>