<svg xmlns="http://www.w3.org/2000/svg" fill="none" viewBox="0 0 24 24" id="Google-Cloud--Streamline-Svg-Logos" height="24" width="24">
  <desc>
    Google Cloud Streamline Icon: https://streamlinehq.com
  </desc>
  <path fill="#ea4335" d="m15.878525 7.770025 2.04275 -2.04275 0.13615 -0.860125C14.334975 1.482325 8.417675 1.866125 5.06205 5.667975c-0.9321 1.055925 -1.6236 2.3724 -1.99235 3.7318l0.731625 -0.103075 4.0854 -0.6737 0.315425 -0.322575c1.817275 -1.99585 4.89 -2.26435 6.988275 -0.5662l0.6881 0.0358Z" stroke-width="0.25"></path>
  <path fill="#4285f4" d="M20.83135 9.3397c-0.46955 -1.729075 -1.4335 -3.283475 -2.773825 -4.4725L15.19055 7.734175c1.2106 0.9892 1.900275 2.479425 1.870725 4.04245v0.508925c1.40915 0 2.55165 1.1424 2.55165 2.551575 0 1.40925 -1.1425 2.523025 -2.55165 2.523025H11.95085l-0.50175 0.544725v3.0605l0.50175 0.480175h5.110425c3.665425 0.02855 6.660025 -2.891025 6.688575 -6.556475 0.01725 -2.22175 -1.078175 -4.304625 -2.9185 -5.549375Z" stroke-width="0.25"></path>
  <path fill="#34a853" d="M6.847475 21.4456h5.10325v-4.0855h-5.10325c-0.363625 -0.000075 -0.71575 -0.0782 -1.0464 -0.2293l-0.724 0.22215 -2.057075 2.04275 -0.179175 0.69525c1.1536 0.871075 2.561125 1.3609 4.00665 1.35465Z" stroke-width="0.25"></path>
  <path fill="#fbbc05" d="M6.84745 8.192925C3.181925 8.21475 0.22827275 11.204025 0.25012 14.869475c0.01221 2.046875 0.96818 3.973675 2.59068 5.221475l2.96025 -2.960175c-1.284325 -0.58025 -1.855025 -2.091675 -1.274775 -3.3759 0.58015 -1.28425 2.091675 -1.85495 3.375825 -1.274775 0.565925 0.25565 1.019125 0.708925 1.274775 1.274775l2.96025 -2.960175c-1.259525 -1.64655 -3.216625 -2.609225 -5.289675 -2.601775Z" stroke-width="0.25"></path>
</svg>