<svg xmlns="http://www.w3.org/2000/svg" fill="none" viewBox="0 0 24 24" id="Ionic-Icon--Streamline-Svg-Logos" height="24" width="24">
  <desc>
    Ionic Icon Streamline Icon: https://streamlinehq.com
  </desc>
  <path fill="#FFD8E4" d="M12.013925 0.2639325c1.907275 0 3.7032 0.4456075 5.387725 1.30876l0.22275 0.111375 -0.1949 0.15314c-0.47335 0.3758875 -0.849225 0.8631425 -1.0859 1.4200175l-0.0696 0.15315 -0.139225 -0.069625c-1.294725 -0.61255 -2.672975 -0.93275 -4.106925 -0.93275 -5.304225 0 -9.60605 4.31575 -9.60605 9.60605 0 5.290275 4.287925 9.606025 9.592125 9.606025 5.3042 0 9.60605 -4.31575 9.60605 -9.606025 0 -1.2669 -0.236675 -2.505925 -0.737875 -3.675375l-0.0696 -0.153125 0.15315 -0.0696c0.570775 -0.20885 1.071975 -0.556875 1.4757 -1.002375l0.15315 -0.1949 0.09745 0.22275C23.40195 8.686725 23.75 10.3295 23.75 11.9862c0 6.473625 -5.276375 11.75 -11.75 11.75s-11.75 -5.276375 -11.75 -11.75C0.25 5.51255 5.52635 0.2361995 12.013925 0.2639325Zm0 6.4041425c2.9375 0 5.345975 2.39455 5.3599 5.3599 0 2.965325 -2.39455 5.359875 -5.3599 5.359875 -2.96535 0 -5.3599 -2.39455 -5.3599 -5.359875 0 -2.96535 2.408475 -5.3599 5.3599 -5.3599ZM19.684825 2.2409375c1.353225 0 2.45025 1.0970125 2.45025 2.4502375 0 1.353225 -1.097025 2.45025 -2.45025 2.45025 -1.353225 0 -2.450225 -1.097025 -2.450225 -2.45025 0 -1.353225 1.097 -2.4502375 2.450225 -2.4502375Z" stroke-width="0.25"></path>
</svg>