<svg viewBox="0 0 16 16" fill="#FFD8E4" xmlns="http://www.w3.org/2000/svg" id="Java-Line--Streamline-Remix" height="16" width="16">
  <desc>
    Java Line Streamline Icon: https://streamlinehq.com
  </desc>
  <path d="M7.212866666666667 5.6176933333333325c-0.5060666666666667 -0.7229133333333333 -0.69692 -1.2476066666666665 -0.73834 -1.6294066666666664 -0.039126666666666664 -0.36062666666666665 0.04895333333333333 -0.6463266666666666 0.2236733333333333 -0.9220933333333333 0.18866666666666665 -0.2979 0.4718 -0.5749466666666666 0.8320666666666666 -0.9019066666666666 0.33666666666666667 -0.3056 0.7579333333333333 -0.6686933333333333 1.0884666666666667 -1.0800266666666665L7.579333333333333 0.24910466666666667c-0.2772 0.3449846666666666 -0.6184666666666666 0.6313219999999999 -0.9452133333333333 0.9278886666666667 -0.35603999999999997 0.32316666666666666 -0.7659533333333333 0.7078599999999999 -1.0623 1.1756866666666665 -0.3103733333333333 0.4899533333333333 -0.49938 1.0739666666666667 -0.42284666666666665 1.7794066666666666 0.07423333333333333 0.6842733333333333 0.39178 1.4220066666666666 0.9715933333333333 2.250253333333333l1.0922999999999998 -0.7646466666666667Zm0.8331999999999999 -2.01992c0.18986666666666666 -0.45568 0.5748 -0.91272 1.1867333333333332 -1.4372599999999998l0.8677333333333334 1.01234c-0.5547333333333333 0.47546 -0.7531333333333332 0.76842 -0.8236666666666667 0.9377399999999999 -0.06939999999999999 0.16646666666666665 -0.023399999999999997 0.33272 0.023266666666666665 0.4982 0.05566666666666667 0.19726 0.14839999999999998 0.52608 0.14246666666666666 0.8815 -0.0078 0.47025999999999996 -0.16899999999999998 0.9678399999999999 -0.5545333333333333 1.5461733333333332l-1.1094666666666666 -0.7395799999999999c0.28113333333333335 -0.4216533333333333 0.32826666666666665 -0.6740733333333333 0.33086666666666664 -0.8288133333333333 0.0032666666666666664 -0.19673999999999997 -0.04806666666666666 -0.3071 -0.13119999999999998 -0.6396999999999999 -0.07973333333333332 -0.31886 -0.14006666666666667 -0.7316666666666666 0.0678 -1.2306ZM4.0947 6.666566666666666c0.31281333333333333 -0.20938666666666667 0.6997399999999999 -0.31586 1.0612133333333333 -0.4028133333333333L4.844086666666667 4.9674c-0.5419933333333333 0.13037333333333334 -1.0342799999999999 0.3071466666666667 -1.408 0.5377933333333333C3.096053333333333 5.7150533333333335 2.6666666666666665 6.090539999999999 2.6666666666666665 6.66662c0 0.48417999999999994 0.3238133333333333 0.8707133333333333 0.7103266666666667 1.1238466666666667 -0.028319999999999998 0.122 -0.043660000000000004 0.24926666666666666 -0.043660000000000004 0.38126666666666664 0 0.6536 0.27869999999999995 1.2046666666666666 0.7618266666666667 1.6139999999999999 -0.07094666666666666 0.19939999999999997 -0.10308666666666666 0.42219999999999996 -0.09295333333333333 0.6452666666666667 -0.5182933333333333 0.10046666666666666 -1.02422 0.24853333333333333 -1.44664 0.4421333333333333 -0.28831999999999997 0.13213333333333332 -0.5721733333333333 0.301 -0.7935399999999999 0.5184666666666666C1.5391733333333333 11.610466666666667 1.3333333333333333 11.927533333333333 1.3333333333333333 12.333333333333332c0 0.2846666666666666 0.12575333333333333 0.5144666666666666 0.24921333333333331 0.6728666666666667 0.12602666666666668 0.16173333333333334 0.28805333333333333 0.2995333333333333 0.4561933333333333 0.41633333333333333 0.33745333333333327 0.2344 0.78952 0.446 1.3057266666666667 0.6242666666666666C4.38336 14.4056 5.790566666666667 14.666666666666666 7.333333333333333 14.666666666666666c2.2182 0 3.7751333333333332 -0.25593333333333335 4.793266666666666 -0.5215333333333333 0.5089999999999999 -0.13279999999999997 0.8825333333333334 -0.2678 1.1360666666666666 -0.3739333333333333 0.13973333333333332 -0.05846666666666667 0.28006666666666663 -0.1206 0.41079999999999994 -0.1978 0.007133333333333333 -0.004266666666666667 -0.6856666666666666 -1.1435333333333333 -0.6825333333333333 -1.1454 -0.3765333333333333 0.19606666666666664 -0.7920666666666666 0.32026666666666664 -1.2008666666666665 0.4269333333333333C10.891533333333332 13.089333333333332 9.448466666666667 13.333333333333332 7.333333333333333 13.333333333333332c-1.4027533333333333 0 -2.6622133333333333 -0.23893333333333333 -3.5536 -0.5468 -0.3541266666666667 -0.12226666666666666 -0.7250933333333333 -0.2653333333333333 -1.0271066666666666 -0.4928666666666666 0.07691999999999999 -0.060866666666666666 0.19384666666666664 -0.133 0.3584733333333333 -0.20846666666666663 0.37198 -0.17046666666666666 0.8819533333333333 -0.31033333333333335 1.4262799999999998 -0.3941333333333333 0.15272 0.16199999999999998 0.3351 0.3049333333333333 0.5433733333333333 0.42646666666666666C5.7242733333333335 12.492933333333333 6.608453333333333 12.666666666666666 7.666666666666666 12.666666666666666c0.8733333333333333 0 1.5051999999999999 -0.08786666666666666 1.9321333333333333 -0.18246666666666667 0.23693333333333333 -0.05246666666666667 0.4756666666666667 -0.11173333333333332 0.6946666666666667 -0.21893333333333334 0.0021333333333333334 -0.001 -0.5875333333333332 -1.1968666666666665 -0.5875333333333332 -1.1968666666666665 -0.12919999999999998 0.047266666666666665 -0.26106666666666667 0.08426666666666667 -0.39546666666666663 0.11406666666666666 -0.3254666666666667 0.07206666666666667 -0.8602666666666666 0.15086666666666665 -1.6438 0.15086666666666665 -0.9418 0 -1.5576066666666666 -0.1596 -1.9140866666666665 -0.3675333333333333 -0.2835933333333333 -0.1654 -0.39252 -0.34886666666666666 -0.41476 -0.5488 0.5786 0.16853333333333334 1.2637466666666666 0.24966666666666665 2.0371799999999998 0.24966666666666665 0.9757333333333333 0 1.6793333333333333 -0.09566666666666665 2.1521999999999997 -0.1978 0.2571333333333333 -0.05553333333333333 0.5170666666666666 -0.11946666666666667 0.7564666666666666 -0.23113333333333333 0.013533333333333331 -0.006466666666666667 -0.5718 -1.2045333333333332 -0.5718 -1.2045333333333332 -0.036533333333333334 0.014933333333333333 -0.18573333333333333 0.0718 -0.46613333333333334 0.13233333333333333 -0.3736 0.08073333333333332 -0.9824666666666666 0.16779999999999998 -1.8707333333333331 0.16779999999999998 -1.0687666666666666 0 -1.7809533333333332 -0.17626666666666668 -2.2016466666666665 -0.4155333333333333 -0.31399333333333335 -0.1786 -0.4518333333333333 -0.3785333333333333 -0.4928133333333333 -0.5931333333333333 0.8264466666666667 0.21766666666666667 1.8694 0.3419333333333333 2.9861266666666664 0.3419333333333333 1.2111333333333332 0 2.3343999999999996 -0.1462 3.1887999999999996 -0.39846666666666664l-0.3776 -1.2787333333333333c-0.7028 0.20753333333333335 -1.6937333333333333 0.34386666666666665 -2.8112 0.34386666666666665 -1.1491666666666664 0 -2.1633266666666664 -0.1442 -2.8680733333333333 -0.361 -0.33266666666666667 -0.10239999999999999 -0.5638333333333333 -0.2111333333333333 -0.7038933333333333 -0.30569999999999997Zm7.632299999999999 0.4972333333333333c0.8082666666666666 -0.07346666666666667 1.1061333333333332 0.12553333333333333 1.2022666666666666 0.2285333333333333 0.0994 0.10653333333333333 0.13419999999999999 0.2716666666666666 0.09066666666666667 0.44586666666666663 -0.07746666666666666 0.3097333333333333 -0.2951333333333333 0.6100666666666666 -0.6487999999999999 0.8859999999999999 -0.35239999999999994 0.27499999999999997 -0.8002666666666666 0.49353333333333327 -1.2485333333333333 0.6428666666666667l0.42146666666666666 1.265c0.5517333333333333 -0.18386666666666665 1.1455333333333333 -0.4651333333333333 1.6472666666666664 -0.8566666666666666 0.5005333333333333 -0.3905333333333333 0.9495333333333332 -0.9234 1.1220666666666665 -1.6138 0.12306666666666666 -0.49233333333333335 0.07453333333333333 -1.1605333333333332 -0.4093333333333333 -1.67902 -0.4872666666666666 -0.52204 -1.2726666666666666 -0.7397999999999999 -2.2977333333333334 -0.6466066666666667l0.12066666666666666 1.3278266666666667Z" stroke-width="0.6667"></path>
</svg>