<svg viewBox="0 0 16 16" fill="none" xmlns="http://www.w3.org/2000/svg" id="Linkedin-Logo--Streamline-Radix" height="16" width="16">
  <desc>
    Linkedin Logo Streamline Icon: https://streamlinehq.com
  </desc>
  <path fill-rule="evenodd" clip-rule="evenodd" d="M2.1333333333333333 1.0666666666666667c-0.5890986666666667 0 -1.0666666666666667 0.477568 -1.0666666666666667 1.0666666666666667v11.733333333333333c0 0.58912 0.477568 1.0666666666666667 1.0666666666666667 1.0666666666666667h11.733333333333333c0.58912 0 1.0666666666666667 -0.4775466666666666 1.0666666666666667 -1.0666666666666667V2.1333333333333333c0 -0.5890986666666667 -0.4775466666666666 -1.0666666666666667 -1.0666666666666667 -1.0666666666666667H2.1333333333333333Zm1.12 5.333333333333333h2.0266666666666664v6.4h-2.0266666666666664V6.4Zm2.1599999999999997 -2.128c0 0.6332906666666667 -0.5133759999999999 1.1466666666666665 -1.1466666666666665 1.1466666666666665 -0.63328 0 -1.1466666666666665 -0.5133759999999999 -1.1466666666666665 -1.1466666666666665S3.6333866666666665 3.1253333333333333 4.266666666666667 3.1253333333333333c0.6332906666666667 0 1.1466666666666665 0.5133759999999999 1.1466666666666665 1.1466666666666665ZM12.8 8.914272c0 -1.9253866666666666 -1.2443733333333333 -2.6739200000000003 -2.480544 -2.6739200000000003 -0.40476799999999996 -0.019946666666666668 -0.8077653333333332 0.06491733333333333 -1.1688 0.24612266666666666 -0.2741546666666667 0.1376 -0.5611626666666666 0.4524373333333333 -0.7824853333333334 0.9999573333333333h-0.056928V6.400469333333334H6.4v6.4045440000000005h2.0332373333333336V9.398613333333333c-0.029397333333333334 -0.34887466666666667 0.08225066666666667 -0.7997653333333333 0.31066666666666665 -1.0680853333333333 0.22842666666666667 -0.26832 0.5551786666666667 -0.33239466666666667 0.8029226666666666 -0.36493866666666663h0.07725866666666666c0.6465706666666667 0 1.1264213333333333 0.400288 1.1264213333333333 1.4090026666666666v3.4304213333333333h2.033173333333333L12.8 8.914272Z" fill="#FFD8E4" stroke-width="1.0667"></path>
</svg>