<svg width="268" height="260" viewBox="0 0 268 260" fill="none" xmlns="http://www.w3.org/2000/svg">
  <g filter="url(#filter0_d_63_1742)">
    <path d="M251.569 216.653H16.35V191.872H4V229.003H16.35V241.435H251.569V229.003H264V191.872H251.569V216.653Z"
      fill="#FFD8E4" />
    <path
      d="M239.219 167.09H251.569V191.872H239.219V167.09ZM152.525 92.8279H164.956V105.178H152.525V92.8279ZM115.394 191.872H152.525V204.222H115.394V191.872ZM127.825 92.8279H140.175V105.178H127.825V92.8279ZM103.044 92.8279H115.394V105.178H103.044V92.8279ZM41.1313 18.5654H226.869V30.9154H41.1313V18.5654Z"
      fill="#FFD8E4" />
    <path
      d="M239.219 167.091V30.9155H226.869V154.741H41.1313V30.9155H28.7813V167.091H239.219ZM16.3501 167.091H28.7813V191.872H16.3501V167.091Z"
      fill="#FFD8E4" />
  </g>
  <defs>
    <filter id="filter0_d_63_1742" x="0" y="0" width="268" height="268" filterUnits="userSpaceOnUse"
      color-interpolation-filters="sRGB">
      <feFlood flood-opacity="0" result="BackgroundImageFix" />
      <feColorMatrix in="SourceAlpha" type="matrix" values="0 0 0 0 0 0 0 0 0 0 0 0 0 0 0 0 0 0 127 0"
        result="hardAlpha" />
      <feOffset dy="4" />
      <feGaussianBlur stdDeviation="2" />
      <feComposite in2="hardAlpha" operator="out" />
      <feColorMatrix type="matrix" values="0 0 0 0 0 0 0 0 0 0 0 0 0 0 0 0 0 0 0.25 0" />
      <feBlend mode="normal" in2="BackgroundImageFix" result="effect1_dropShadow_63_1742" />
      <feBlend mode="normal" in="SourceGraphic" in2="effect1_dropShadow_63_1742" result="shape" />
    </filter>
  </defs>
</svg>