<svg xmlns="http://www.w3.org/2000/svg" fill="none" viewBox="0 0 24 24" id="Material-Ui--Streamline-Svg-Logos" height="24" width="24">
  <desc>
    Material Ui Streamline Icon: https://streamlinehq.com
  </desc>
  <path fill="#FFD8E4" d="M20.057125 15.7138c0.202075 -0.11605 0.326975 -0.331 0.3277 -0.564025l0.01175 -3.777725c0.00075 -0.233025 0.12565 -0.447975 0.327725 -0.564025l2.0478 -1.176325c0.202 -0.116 0.4505 -0.115575 0.6521 0.0011S23.75 9.96475 23.75 10.197675v6.86805c0 0.233725 -0.125025 0.4496 -0.3277 0.565975L15.69385 22.070725c-0.200875 0.1153 -0.4478 0.11555 -0.648875 0.00065L8.97985 18.602425c-0.2034 -0.116175 -0.32895 -0.3324 -0.329025 -0.566625V14.5727c0 -0.0039 0.004575 -0.006525 0.0085 -0.00455 0.00325 0.00195 0.007825 0 0.007825 -0.004575v-0.003925c0 -0.0026 0.0013 -0.005225 0.003925 -0.006525l4.9952 -2.8697c0.00455 -0.0026 0.0026 -0.009775 -0.002625 -0.009775 -0.002875 0 -0.005225 -0.00235 -0.005225 -0.005225l0.0098 -3.3952c0.000925 -0.233675 -0.123125 -0.45005 -0.325275 -0.567275 -0.20215 -0.11725 -0.45155 -0.1175 -0.653925 -0.00065L8.976575 9.8445c-0.20165 0.116125 -0.44985 0.116125 -0.6515 0l-3.7242 -2.144425c-0.201925 -0.116275 -0.450525 -0.1161 -0.6523 0.000475 -0.20175 0.11655 -0.3261 0.331825 -0.326225 0.56485v6.136275c0.00015 0.232775 -0.12365 0.448 -0.3249 0.564925 -0.201275 0.1169 -0.449575 0.1178 -0.651675 0.00235l-2.066765 -1.18155C0.375225 13.671 0.24960825 13.45415 0.25 13.219475l0.01828 -10.7254475c0.0005075 -0.2327 0.124845 -0.447535 0.32636 -0.5638975 0.201515 -0.1163625 0.4497375 -0.116655 0.6515275 -0.0007725L8.32575 5.995625c0.2013 0.1156 0.448875 0.1156 0.650175 0L16.053525 1.9293575c0.2021 -0.1160575 0.45075 -0.115575 0.652375 0.001265 0.20165 0.11684 0.325725 0.332315 0.325525 0.5653625V13.224025c0.0001 0.2336 -0.124625 0.449425 -0.32705 0.565975l-3.706575 2.13465c-0.20265 0.116825 -0.3273 0.33315 -0.326775 0.56705 0.00055 0.233925 0.1262 0.44965 0.329375 0.56555l2.044575 1.163925c0.201025 0.114475 0.44765 0.113975 0.648225 -0.0013l4.363925 -2.506075Zm0.4289 -9.623525c0.000175 0.235025 0.1267 0.4518 0.331225 0.567575 0.204525 0.115775 0.4555 0.112675 0.6571 -0.008125l1.9584 -1.175025c0.19665 -0.11785 0.317075 -0.3302 0.31725 -0.55945v-2.39445c-0.000425 -0.234915 -0.127025 -0.4514825 -0.3315 -0.5670975 -0.2045 -0.115615 -0.455325 -0.1124475 -0.656825 0.008295l-1.9584 1.1750275c-0.19665 0.11785 -0.317075 0.3302 -0.31725 0.55945v2.39445Z" stroke-width="0.25"></path>
</svg>