<svg role="img" viewBox="0 0 24 24" xmlns="http://www.w3.org/2000/svg" id="Mongodb--Streamline-Simple-Icons" height="24" width="24">
  <desc>
    Mongodb Streamline Icon: https://streamlinehq.com
  </desc>
  <title>MongoDB</title>
  <path d="M17.193 9.555c-1.264 -5.58 -4.252 -7.414 -4.573 -8.115 -0.28 -0.394 -0.53 -0.954 -0.735 -1.44 -0.036 0.495 -0.055 0.685 -0.523 1.184 -0.723 0.566 -4.438 3.682 -4.74 10.02 -0.282 5.912 4.27 9.435 4.888 9.884l0.07 0.05A73.49 73.49 0 0 1 11.91 24h0.481c0.114 -1.032 0.284 -2.056 0.51 -3.07 0.417 -0.296 0.604 -0.463 0.85 -0.693a11.342 11.342 0 0 0 3.639 -8.464c0.01 -0.814 -0.103 -1.662 -0.197 -2.218zm-5.336 8.195s0 -8.291 0.275 -8.29c0.213 0 0.49 10.695 0.49 10.695 -0.381 -0.045 -0.765 -1.76 -0.765 -2.405z" fill="#FFD8E4" stroke-width="1"></path>
</svg>