<svg xmlns="http://www.w3.org/2000/svg" viewBox="0 0 16 16" id="Node-Js--Streamline-Font-Awesome" height="16" width="16">
  <desc>
    Node Js Streamline Icon: https://streamlinehq.com
  </desc>
<!--! Font Awesome Free 6.5.2 by @fontawesome - https://fontawesome.com License - https://fontawesome.com/license/free (Icons: CC BY 4.0, Fonts: SIL OFL 1.1, Code: MIT License) Copyright 2024 Fonticons, Inc.-->
  <path d="M7.9968892857142855 15.839999999999998c-0.20846428571428569 0 -0.42004285714285716 -0.05600714285714285 -0.6036142857142857 -0.16179285714285713l-1.9197464285714283 -1.1356678571428571c-0.28625357142857144 -0.1617964285714286 -0.14623928571428568 -0.2178 -0.05289642857142857 -0.2489142857142857 0.3827071428571428 -0.13379285714285713 0.4604892857142857 -0.1617964285714286 0.8680857142857142 -0.39514999999999995 0.043560714285714286 -0.02489285714285714 0.09956785714285714 -0.015557142857142856 0.143125 0.012442857142857141l1.4748142857142856 0.8743107142857142c0.052892857142857144 0.031114285714285712 0.12756785714285712 0.031114285714285712 0.17734999999999998 0l5.746792857142857 -3.316775c0.05289642857142857 -0.031114285714285712 0.08712142857142857 -0.09334285714285713 0.08712142857142857 -0.15557142857142855V4.679335714285714c0 -0.06533928571428571 -0.034225 -0.12445714285714285 -0.09023214285714284 -0.15868214285714285L8.084007142857143 1.206992857142857c-0.052892857142857144 -0.031114285714285712 -0.12445714285714285 -0.031114285714285712 -0.17734999999999998 0L2.1660892857142855 4.523764285714286c-0.05600714285714285 0.031114285714285712 -0.09023214285714284 0.09334285714285713 -0.09023214285714284 0.1586857142857143v6.6304357142857135c0 0.062228571428571425 0.034225 0.12445357142857143 0.09023214285714284 0.15245714285714285l1.5743785714285714 0.9085357142857142c0.8556392857142856 0.42626428571428565 1.3783571428571428 -0.07467499999999999 1.3783571428571428 -0.5818357142857142v-6.546428571428572c0 -0.09334285714285713 0.07467499999999999 -0.16490357142857143 0.16801785714285714 -0.16490357142857143h0.7280714285714285c0.09023214285714284 0 0.16801785714285714 0.07156071428571427 0.16801785714285714 0.16490357142857143v6.549539285714285c0 1.1387785714285714 -0.6222857142857142 1.7921785714285712 -1.7019464285714285 1.7921785714285712 -0.33292142857142853 0 -0.5942821428571429 0 -1.3223535714285715 -0.360925l-1.5059285714285713 -0.8680857142857142c-0.3733714285714285 -0.21468928571428572 -0.6036142857142857 -0.6160607142857143 -0.6036142857142857 -1.0485499999999999V4.679335714285714c0 -0.429375 0.2302428571428571 -0.8338607142857142 0.6036142857142857 -1.0485464285714285l5.740571428571428 -3.316775c0.36403571428571424 -0.2053535714285714 0.8463035714285714 -0.2053535714285714 1.2072285714285713 0l5.746792857142857 3.3198857142857143c0.3733714285714285 0.21468928571428572 0.6036142857142857 0.6160607142857143 0.6036142857142857 1.0485499999999999v6.6304357142857135c0 0.429375 -0.2302428571428571 0.8307464285714286 -0.6036142857142857 1.0485464285714285l-5.746792857142857 3.316775c-0.183575 0.10578571428571429 -0.3920392857142857 0.16179285714285713 -0.6036142857142857 0.16179285714285713Zm4.639125 -6.537092857142857c0 -1.2414571428571428 -0.8400821428571429 -1.571267857142857 -2.604257142857143 -1.804625 -1.7859535714285715 -0.23646785714285715 -1.966417857142857 -0.3578107142857143 -1.966417857142857 -0.7747428571428571 0 -0.3453678571428571 0.15246071428571428 -0.8058571428571428 1.4748142857142856 -0.8058571428571428 1.1792285714285713 0 1.614825 0.25513571428571424 1.7952892857142855 1.0516607142857142 0.015557142857142856 0.07467142857142857 0.08400714285714285 0.13067857142857142 0.16179285714285713 0.13067857142857142h0.746742857142857c0.046671428571428565 0 0.09022857142857144 -0.018667857142857142 0.12134285714285714 -0.052892857142857144s0.046671428571428565 -0.08089642857142856 0.043560714285714286 -0.12756785714285712c-0.11512142857142856 -1.3721392857142856 -1.0267678571428571 -2.0099785714285714 -2.868728571428571 -2.0099785714285714 -1.6397178571428572 0 -2.6167035714285714 0.6907357142857142 -2.6167035714285714 1.851292857142857 0 1.2570142857142856 0.9738749999999999 1.605492857142857 2.545139285714286 1.7610642857142857 1.8824107142857143 0.183575 2.0286464285714287 0.4604892857142857 2.0286464285714287 0.8307499999999999 0 0.6409535714285713 -0.5164964285714285 0.9147571428571428 -1.726835714285714 0.9147571428571428 -1.521485714285714 0 -1.8544071428571427 -0.3827035714285714 -1.966417857142857 -1.1387785714285714 -0.01244642857142857 -0.08089642857142856 -0.08089642857142856 -0.1400142857142857 -0.16490714285714284 -0.1400142857142857h-0.7436285714285714c-0.09334285714285713 0 -0.16490357142857143 0.07467499999999999 -0.16490357142857143 0.16490357142857143 0 0.9676535714285714 0.5258285714285714 2.1219892857142857 3.042967857142857 2.1219892857142857 1.817067857142857 -0.0031107142857142852 2.8625071428571425 -0.72185 2.8625071428571425 -1.9726392857142856Z" fill="#FFD8E4" stroke-width="0.0357"></path>
</svg>