<svg xmlns="http://www.w3.org/2000/svg" fill="none" viewBox="0 0 24 24" id="Postgresql--Streamline-Svg-Logos" height="24" width="24">
  <desc>
    Postgresql Streamline Icon: https://streamlinehq.com
  </desc>
  <path fill="#FFD8E4" d="M23.33655 14.326975c-0.137 -0.41485 -0.495875 -0.703875 -0.960025 -0.77325 -0.218825 -0.032675 -0.469475 -0.018725 -0.766025 0.042425 -0.516925 0.10665 -0.90045 0.147225 -1.180325 0.155125 1.056425 -1.7837 1.915475 -3.817825 2.410025 -5.73255 0.79965 -3.096025 0.372325 -4.50645 -0.127 -5.144475C21.391675 1.1856675 19.463575 0.2784775 17.1374 0.25067c-1.2408 -0.015145 -2.3302 0.2298575 -2.8984 0.4059975 -0.5291 -0.093295 -1.09805 -0.14543 -1.695025 -0.155085 -1.118825 -0.017835 -2.1075 0.2260575 -2.952275 0.727355 -0.467775 -0.1580925 -1.2183 -0.3810375 -2.085125 -0.523355 -2.03875 -0.3347075 -3.68185 -0.073875 -4.883675 0.775165C1.1675425 2.508775 0.49285 4.294875 0.6176475 6.789475c0.039575 0.79205 0.48267 3.201825 1.1802625 5.48725 0.4009325 1.313575 0.828465 2.40445 1.270715 3.2425 0.62715 1.1884 1.2982 1.88825 2.051575 2.13955 0.4223 0.140725 1.1895 0.2392 1.996475 -0.43275 0.102275 0.123775 0.238675 0.2469 0.419825 0.361175 0.22995 0.145075 0.511225 0.2636 0.79205 0.333825 1.01225 0.253075 1.960375 0.18975 2.769275 -0.1649 0.00495 0.14385 0.0088 0.2813 0.012075 0.399975 0.005375 0.19255 0.01065 0.3813 0.017725 0.557825 0.047925 1.1937 0.129125 2.12185 0.36975 2.771225 0.0132 0.035775 0.030975 0.090175 0.04975 0.14785 0.12 0.367575 0.3208 0.98285 0.831425 1.464775 0.5289 0.49915 1.16855 0.652275 1.754375 0.652225 0.293825 0 0.574175 -0.038525 0.820025 -0.091225 0.876525 -0.187825 1.87195 -0.474025 2.592025 -1.4993 0.68075 -0.9693 1.011725 -2.4292 1.071625 -4.729575 0.00775 -0.065 0.014925 -0.1271 0.021825 -0.186325 0.00465 -0.039925 0.0094 -0.080775 0.0142 -0.121525l0.160425 0.0141 0.0413 0.0028c0.89275 0.040675 1.9843 -0.14865 2.654675 -0.460025 0.529725 -0.24585 2.227175 -1.141975 1.827525 -2.35195Z" stroke-width="0.25"></path>
  <path fill="#A55F77" d="M21.8101 14.5623c-2.65435 0.547525 -2.836825 -0.35115 -2.836825 -0.35115C21.77585 10.0526 22.9474 4.773925 21.936375 3.482 19.178175 -0.04211275 14.403625 1.6245675 14.32395 1.6678375l-0.02565 0.0045925c-0.524425 -0.10886 -1.1113 -0.1737125 -1.7709 -0.1844775 -1.20105 -0.0196825 -2.1121 0.3148675 -2.803425 0.8391175 0 0 -8.5173475 -3.508815 -8.1212175 4.413005 0.08427 1.6853 2.4155175 12.751775 5.1961175 9.409175 1.016325 -1.22225 1.9983 -2.255725 1.9983 -2.255725 0.487725 0.324 1.0716 0.489275 1.683725 0.4299l0.047525 -0.040375c-0.014775 0.151775 -0.008025 0.3002 0.01905 0.475925 -0.716325 0.800325 -0.505825 0.94085 -1.9378 1.235625 -1.44895 0.2986 -0.59775 0.83025 -0.042 0.969175 0.67375 0.1685 2.23245 0.407175 3.28565 -1.067175l-0.042 0.168225c0.280675 0.2248 0.477775 1.46225 0.444725 2.584 -0.033025 1.1218 -0.055075 1.89195 0.166075 2.4935 0.22115 0.601575 0.44155 1.955075 2.324 1.5517 1.572975 -0.337075 2.388075 -1.2106 2.501475 -2.667675 0.080475 -1.0359 0.262575 -0.882775 0.274075 -1.8089l0.146075 -0.43845c0.168425 -1.4042 0.02675 -1.857225 0.99585 -1.646525l0.2355 0.020675c0.71325 0.032475 1.646775 -0.1147 2.194675 -0.369375 1.179775 -0.5475 1.8795 -1.461675 0.716225 -1.221475h0.0001Z" stroke-width="0.25"></path>
  <path fill="#FFD8E4" d="M10.222625 7.493775c-0.23915 -0.0333 -0.4558 -0.002475 -0.5654 0.080475 -0.0617 0.0467 -0.08075 0.100775 -0.08585 0.13805 -0.013775 0.098625 0.05535 0.207625 0.097775 0.263875 0.1201 0.1592 0.2956 0.26865 0.469325 0.292775 0.02515 0.003475 0.050175 0.005175 0.075075 0.005175 0.2897 0 0.553 -0.22555 0.576225 -0.392025 0.029025 -0.2085 -0.27365 -0.347475 -0.56715 -0.388325Z" stroke-width="0.25"></path>
  <path fill="#FFD8E4" d="M18.146775 7.50035c-0.0228 -0.163425 -0.3137 -0.210025 -0.589675 -0.171675 -0.275575 0.038425 -0.542825 0.1628 -0.520525 0.3266 0.01795 0.127375 0.24785 0.344825 0.52015 0.344775 0.02295 0 0.046175 -0.001525 0.06955 -0.0048 0.181725 -0.025175 0.315075 -0.140575 0.3784 -0.2071 0.0965 -0.101325 0.152275 -0.21435 0.1421 -0.2878Z" stroke-width="0.25"></path>
  <path fill="#FFD8E4" d="M22.693375 14.500275c-0.1012 -0.306075 -0.426925 -0.404575 -0.968175 -0.292775 -1.607 0.33165 -2.1825 0.1019 -2.3715 -0.03725 1.249125 -1.902925 2.276675 -4.203025 2.831 -6.34915 0.262625 -1.016575 0.407675 -1.96065 0.4195 -2.730125 0.0131 -0.844725 -0.1307 -1.465325 -0.427425 -1.84445 -1.1962 -1.52849 -2.951725 -2.3483475 -5.076875 -2.37088 -1.460925 -0.01641 -2.695275 0.357505 -2.934575 0.46262 -0.50395 -0.125325 -1.053325 -0.2022625 -1.651325 -0.212075 -1.0968 -0.01773 -2.044775 0.2448425 -2.8297 0.7800175 -0.340925 -0.126855 -1.22205 -0.4293225 -2.299525 -0.602875 -1.862925 -0.2999875 -3.343225 -0.072715 -4.39965 0.675695C1.7245975 2.872075 1.14267 4.468425 1.2554375 6.723625c0.03794 0.7588 0.470215 3.0929 1.1525075 5.32825C3.306 14.993975 4.282175 16.65955 5.30935 17.0021c0.1202 0.040125 0.258875 0.068175 0.4117 0.068175 0.3747 0 0.83405 -0.1689 1.312025 -0.7435 0.7939 -0.9551 1.535125 -1.755425 1.80835 -2.046225 0.4038 0.216775 0.8473 0.33775 1.30105 0.3499 0.0008 0.011875 0.002025 0.02375 0.003075 0.035575 -0.091025 0.10795 -0.1657 0.202575 -0.229325 0.28335 -0.31435 0.399025 -0.379775 0.4821 -1.391675 0.690475 -0.287775 0.059375 -1.05235 0.216925 -1.063475 0.7528 -0.0122 0.58545 0.9036 0.83135 1.007975 0.857425 0.363625 0.091025 0.7139 0.135925 1.047975 0.135925 0.812525 -0.00005 1.527475 -0.26705 2.0989 -0.783725 -0.017625 2.08725 0.06945 4.144 0.32005 4.770675 0.2052 0.51295 0.706675 1.766725 2.2906 1.766625 0.23235 0 0.488225 -0.027025 0.769625 -0.087325 1.653025 -0.35445 2.370825 -1.085025 2.64855 -2.695725 0.148575 -0.8608 0.403625 -2.91645 0.5235 -4.019025 0.253125 0.078925 0.579025 0.115075 0.9313 0.115025 0.73475 0 1.582525 -0.156075 2.114225 -0.402875 0.597225 -0.27735 1.675075 -0.958075 1.4796 -1.549375ZM18.756825 7.0494c-0.005475 0.325525 -0.050275 0.62105 -0.097775 0.929525 -0.051075 0.33175 -0.10395 0.67475 -0.11725 1.091125 -0.01315 0.405225 0.037475 0.826525 0.086425 1.233875 0.0989 0.822875 0.200375 1.670075 -0.1925 2.506025 -0.06105 -0.10845 -0.119975 -0.22675 -0.174025 -0.357775 -0.0488 -0.11835 -0.154825 -0.308475 -0.301575 -0.571625 -0.57115 -1.024225 -1.9086 -3.42275 -1.22395 -4.4015 0.2039 -0.291375 0.72145 -0.59085 2.02065 -0.42965Zm-1.57475 -5.514575c1.904075 0.0420575 3.41025 0.7543725 4.476675 2.11705 0.817925 1.04525 -0.082725 5.801225 -2.69005 9.904225 -0.02575 -0.032725 -0.051975 -0.06575 -0.0791 -0.09965 -0.010825 -0.01355 -0.02185 -0.027325 -0.032975 -0.04125 0.673725 -1.112725 0.541975 -2.213625 0.424725 -3.189725 -0.048175 -0.400575 -0.093675 -0.778925 -0.082125 -1.13425 0.012 -0.376775 0.0618 -0.699775 0.109925 -1.01215 0.05925 -0.385 0.119475 -0.7833 0.10285 -1.252875 0.0124 -0.049225 0.0174 -0.107425 0.010925 -0.1765 -0.042425 -0.450325 -0.5565 -1.797875 -1.604375 -3.0177 -0.5731 -0.6671 -1.409 -1.4137225 -2.550275 -1.9172875 0.4909 -0.1017375 1.162225 -0.196615 1.9138 -0.1798875ZM6.5273 15.906225c-0.526575 0.6331 -0.89025 0.5118 -1.009825 0.47195 -0.779225 -0.259925 -1.683325 -1.906775 -2.480425 -4.518325 -0.689735 -2.259675 -1.0928325 -4.531925 -1.1247025 -5.1691 -0.100735 -2.015125 0.38774 -3.419525 1.4519025 -4.174225 1.73185 -1.22818 4.579225 -0.4930675 5.72335 -0.1202075 -0.016475 0.0162 -0.033575 0.0313975 -0.049875 0.04786 -1.877425 1.8961225 -1.8329 5.1356475 -1.8283 5.3336475 -0.00015 0.0764 0.006225 0.184575 0.015025 0.333375 0.0323 0.54485 0.0924 1.55895 -0.068175 2.707375 -0.149275 1.0672 0.179675 2.111725 0.9024 2.8658 0.074825 0.078025 0.152925 0.151325 0.2336 0.2203 -0.321725 0.344525 -1.02085 1.106325 -1.764975 2.00155Zm2.006275 -2.676975c-0.5825 -0.60775 -0.847025 -1.453125 -0.725875 -2.3196 0.1696 -1.213175 0.106975 -2.26975 0.07335 -2.837375 -0.0047 -0.079425 -0.00885 -0.149025 -0.01135 -0.20395 0.2743 -0.24315 1.545325 -0.92425 2.451725 -0.71655 0.4137 0.094775 0.665675 0.3764 0.770475 0.860925 0.54235 2.508225 0.0718 3.55365 -0.306275 4.393725 -0.07795 0.173075 -0.15155 0.336675 -0.21445 0.50595l-0.0487 0.1308c-0.123375 0.3308 -0.23815 0.63835 -0.309275 0.930425 -0.619175 -0.0019 -1.221575 -0.266375 -1.679625 -0.74435Zm0.09505 3.3827c-0.1808 -0.045175 -0.343425 -0.12365 -0.438825 -0.1887 0.079675 -0.037525 0.221525 -0.0885 0.467475 -0.13915 1.1904 -0.245125 1.374175 -0.418025 1.77565 -0.927775 0.092075 -0.116825 0.1964 -0.249325 0.340875 -0.4107l0.00015 -0.0002c0.21525 -0.24095 0.313675 -0.2001 0.492175 -0.126075 0.1447 0.0599 0.285575 0.2412 0.342725 0.440775 0.027025 0.09425 0.057425 0.273175 -0.04195 0.412325 -0.838625 1.1742 -2.06065 1.159125 -2.938275 0.9395Zm6.2297 5.79715c-1.45625 0.312025 -1.97185 -0.431 -2.311625 -1.280425 -0.2193 -0.5484 -0.32705 -3.021275 -0.2506 -5.752075 0.001025 -0.036375 -0.00415 -0.07145 -0.014175 -0.10445 -0.008725 -0.063675 -0.022125 -0.1281 -0.0407 -0.192975 -0.11375 -0.397325 -0.39085 -0.729725 -0.723275 -0.8675 -0.1321 -0.054725 -0.37455 -0.155125 -0.6659 -0.080625 0.062175 -0.255975 0.169925 -0.545 0.2867 -0.858l0.049025 -0.131725c0.0552 -0.148425 0.124375 -0.3022 0.1976 -0.464925 0.395675 -0.879025 0.93755 -2.082925 0.34945 -4.80275 -0.220325 -1.0187 -0.9559 -1.516125 -2.07105 -1.400625 -0.668575 0.069175 -1.28015 0.338925 -1.5852 0.4936 -0.0656 0.033225 -0.1256 0.065325 -0.181625 0.0966 0.0851 -1.026425 0.406825 -2.9446 1.61015 -4.158225 0.7576 -0.76408 1.766625 -1.141425 2.996025 -1.12111 2.422325 0.0396825 3.97565 1.282785 4.8523 2.318685 0.755375 0.892675 1.164425 1.79185 1.327675 2.276775 -1.22765 -0.124775 -2.0626 0.117575 -2.4859 0.722675 -0.9208 1.31625 0.503775 3.871075 1.18845 5.098875 0.125525 0.22505 0.233925 0.4195 0.268 0.50215 0.22295 0.540325 0.5116 0.90105 0.72235 1.164425 0.0646 0.080675 0.127275 0.158925 0.174925 0.227275 -0.3718 0.107225 -1.039675 0.35485 -0.97885 1.59285 -0.049075 0.62125 -0.398175 3.5296 -0.575475 4.557175 -0.2341 1.3575 -0.73365 1.863175 -2.138275 2.164325Zm6.07845 -6.95605c-0.380175 0.1765 -1.01645 0.3089 -1.620925 0.3373 -0.667625 0.031275 -1.00745 -0.074775 -1.0874 -0.14 -0.03755 -0.771475 0.24965 -0.8521 0.55355 -0.937425 0.04775 -0.01345 0.09435 -0.0265 0.1393 -0.042225 0.027975 0.02275 0.058575 0.045325 0.092075 0.06745 0.5366 0.354175 1.493725 0.392375 2.84485 0.1135 0.00495 -0.00105 0.009925 -0.002 0.014825 -0.003 -0.1822 0.170375 -0.494075 0.399075 -0.936275 0.6044Z" stroke-width="0.25"></path>
</svg>