<svg xmlns="http://www.w3.org/2000/svg" viewBox="0 0 16 16" id="Python--Streamline-Font-Awesome" height="16" width="16">
  <desc>
    Python Streamline Icon: https://streamlinehq.com
  </desc>
<!--! Font Awesome Free 6.5.2 by @fontawesome - https://fontawesome.com License - https://fontawesome.com/license/free (Icons: CC BY 4.0, Fonts: SIL OFL 1.1, Code: MIT License) Copyright 2024 Fonticons, Inc.-->
  <path d="M15.552517857142856 6.057342857142857c-0.26949285714285715 -1.0814607142857142 -0.780475 -1.8969357142857142 -1.8689357142857141 -1.8969357142857142h-1.4034535714285714v1.658942857142857c0 1.2879571428571428 -1.0919607142857142 2.3729214285714284 -2.3379178571428567 2.3729214285714284H6.204335714285714c-1.0219642857142857 0 -1.8689357142857141 0.8749678571428571 -1.8689357142857141 1.9004357142857142v3.5628749999999996c0 1.014967857142857 0.8819714285714285 1.6099464285714284 1.8689357142857141 1.9004357142857142 1.1829607142857144 0.3464892857142857 2.3204214285714286 0.4094857142857143 3.737875 0 0.9414678571428571 -0.2729892857142857 1.8689357142857141 -0.8224714285714285 1.8689357142857141 -1.9004357142857142v-1.42445H8.076771428571428v-0.47598214285714285h5.606810714285714c1.0884607142857143 0 1.49095 -0.7594749999999999 1.8689357142857141 -1.8969357142857142 0.39198571428571427 -1.1724607142857142 0.37448571428571426 -2.2994214285714283 0 -3.8008714285714285ZM10.1767 13.179599999999999c0.3884892857142857 0 0.7034785714285713 0.3184892857142857 0.7034785714285713 0.710475 0 0.3954857142857143 -0.3149892857142857 0.7139749999999999 -0.7034785714285713 0.7139749999999999 -0.38498571428571426 0 -0.703475 -0.32198571428571426 -0.703475 -0.7139749999999999 0.0035 -0.3954857142857143 0.3184892857142857 -0.710475 0.703475 -0.710475ZM6.032842857142857 7.723285714285714H9.770714285714284c1.0394642857142857 0 1.8689357142857141 -0.8574714285714286 1.8689357142857141 -1.9004357142857142V2.256475c0 -1.014967857142857 -0.8539714285714286 -1.7744392857142857 -1.8689357142857141 -1.945935714285714 -1.2529571428571427 -0.20649285714285712 -2.6144107142857145 -0.19599285714285714 -3.7378714285714283 0.0035 -1.5819464285714284 0.27998928571428566 -1.8689357142857141 0.8644714285714286 -1.8689357142857141 1.945935714285714v1.42445h3.741371428571428v0.47598214285714285H2.760453571428571c-1.0884607142857143 0 -2.040428571428571 0.6544785714285714 -2.3379178571428567 1.8969357142857142 -0.3429892857142857 1.4244535714285715 -0.3569892857142857 2.3134214285714285 0 3.8008714285714285 0.2659892857142857 1.1059607142857142 0.899467857142857 1.8969357142857142 1.9879321428571428 1.8969357142857142h1.2844535714285714v-1.7079428571428572c0 -1.2354571428571426 1.0674642857142855 -2.3239214285714285 2.3379214285714283 -2.3239214285714285Zm-0.23449285714285714 -4.990828571428572c-0.3884857142857142 0 -0.703475 -0.3184892857142857 -0.703475 -0.710475 0.0035 -0.3954857142857143 0.3149892857142857 -0.7139749999999999 0.703475 -0.7139749999999999 0.38498571428571426 0 0.703475 0.32198571428571426 0.703475 0.7139749999999999s-0.3149892857142857 0.710475 -0.703475 0.710475Z" fill="#FFD8E4" stroke-width="0.0357"></path>
</svg>