<svg xmlns="http://www.w3.org/2000/svg" viewBox="0 0 24 24" fill="none" stroke="#FFD8E4" stroke-linecap="round" stroke-linejoin="round" id="Brand-React-Native--Streamline-Tabler" height="24" width="24">
  <desc>
    Brand React Native Streamline Icon: https://streamlinehq.com
  </desc>
  <path d="M6.357 9C3.72 9.68 2 10.845 2 12.175 2 14.282 6.405 16 11.85 16c0.74 0 1.26 -0.039 1.95 -0.097" stroke-width="2"></path>
  <path d="M9.837 15.9c-0.413 -0.596 -0.806 -1.133 -1.18 -1.8 -2.751 -4.9 -3.488 -9.77 -1.63 -10.873 1.15 -0.697 3.047 0.253 4.974 2.254" stroke-width="2"></path>
  <path d="M6.429 15.387c-0.702 2.688 -0.56 4.716 0.56 5.395 1.783 1.08 5.387 -1.958 8.043 -6.804 0.36 -0.67 0.683 -1.329 0.968 -1.978" stroke-width="2"></path>
  <path d="M12 18.52c1.928 2 3.817 2.95 4.978 2.253 1.85 -1.102 1.121 -5.972 -1.633 -10.873 -0.384 -0.677 -0.777 -1.204 -1.18 -1.8" stroke-width="2"></path>
  <path d="M17.66 15c2.612 -0.687 4.34 -1.85 4.34 -3.176C22 9.714 17.592 8 12.155 8c-0.747 0 -1.266 0.029 -1.955 0.087" stroke-width="2"></path>
  <path d="M8 12c0.285 -0.66 0.607 -1.308 0.968 -1.978 2.647 -4.844 6.253 -7.89 8.046 -6.801 1.11 0.679 1.262 2.706 0.56 5.393" stroke-width="2"></path>
  <path d="M12.26 12.015h-0.01c-0.01 0.13 -0.12 0.24 -0.26 0.24a0.263 0.263 0 0 1 -0.25 -0.26c0 -0.14 0.11 -0.25 0.24 -0.25h-0.01c0.13 -0.01 0.25 0.11 0.25 0.24" stroke-width="2"></path>
</svg>