<svg xmlns="http://www.w3.org/2000/svg" viewBox="0 0 24 24" fill="none" stroke="#FFD8E4" stroke-linecap="round" stroke-linejoin="round" id="Brand-Redux--Streamline-Tabler" height="24" width="24">
  <desc>
    Brand Redux Streamline Icon: https://streamlinehq.com
  </desc>
  <path d="M16.54 7c-0.805 -2.365 -2.536 -4 -4.54 -4 -2.774 0 -5.023 2.632 -5.023 6.496 0 1.956 1.582 4.727 2.512 6" stroke-width="2"></path>
  <path d="M4.711 11.979C3.055 13.856 2.497 16.164 3.5 17.89c1.387 2.39 5.138 2.831 8.501 0.9 1.703 -0.979 2.875 -3.362 3.516 -4.798" stroke-width="2"></path>
  <path d="M15.014 19.99c2.511 0 4.523 -0.438 5.487 -2.1 1.387 -2.39 -0.215 -5.893 -3.579 -7.824 -1.702 -0.979 -4.357 -1.235 -5.927 -1.07" stroke-width="2"></path>
  <path d="M10.493 9.862c0.48 0.276 1.095 0.112 1.372 -0.366a1 1 0 0 0 -0.367 -1.365 1.007 1.007 0 0 0 -1.373 0.366 1 1 0 0 0 0.368 1.365z" stroke-width="2"></path>
  <path d="M8.5 15.5a1 1 0 1 0 2 0 1 1 0 1 0 -2 0" stroke-width="2"></path>
  <path d="M14.5 14a1 1 0 1 0 2 0 1 1 0 1 0 -2 0" stroke-width="2"></path>
</svg>