<svg viewBox="0 0 24 24" fill="none" xmlns="http://www.w3.org/2000/svg" id="Star-Fall-Minimalistic--Streamline-Solar-Ar" height="24" width="24">
  <desc>
    Star Fall Minimalistic Streamline Icon: https://streamlinehq.com
  </desc>
  <path d="M14.7249 8.15612c1.5505 -0.91824 2.3258 -1.37736 2.8952 -1.0516 0.5694 0.32575 0.5558 1.22065 0.5286 3.01048l-0.0071 0.463c-0.0077 0.5086 -0.0116 0.7629 0.0832 0.9864 0.0948 0.2234 0.2775 0.3908 0.6429 0.7255l0.3326 0.3047c1.2859 1.1779 1.9288 1.7668 1.7781 2.4282 -0.1507 0.6613 -0.9953 0.9571 -2.6843 1.5486l-0.437 0.1531c-0.48 0.1681 -0.72 0.2521 -0.9041 0.4206 -0.1841 0.1686 -0.2915 0.4024 -0.5063 0.8702l-0.1955 0.4259c-0.7559 1.6462 -1.1338 2.4693 -1.7963 2.5523 -0.6625 0.083 -1.1709 -0.6291 -2.1876 -2.0533l-0.263 -0.3685c-0.2889 -0.4047 -0.4334 -0.607 -0.642 -0.7264 -0.2085 -0.1193 -0.4576 -0.1421 -0.9558 -0.1877l-0.45347 -0.0415c-1.75298 -0.1604 -2.62947 -0.2407 -2.88821 -0.8507 -0.25874 -0.6101 0.27162 -1.346 1.33234 -2.8177l0.27442 -0.3808c0.30142 -0.4182 0.45214 -0.6273 0.50735 -0.8696 0.05521 -0.2422 0.00866 -0.4902 -0.08442 -0.9862l-0.08475 -0.4515c-0.32757 -1.74539 -0.49135 -2.61806 0.01125 -3.07808 0.50261 -0.46002 1.33879 -0.20272 3.01099 0.31187l0.4327 0.13313c0.4752 0.14624 0.7128 0.21935 0.9555 0.18895 0.2427 -0.03039 0.463 -0.16086 0.9036 -0.42179l0.4011 -0.23756Z" stroke="#FFD8E4" stroke-width="1.5"></path>
  <path d="M13.5 6.5 13 6M9.5 2.5l2 2" stroke="#FFD8E4" stroke-linecap="round" stroke-width="1.5"></path>
  <path d="M6.5 6.5 4 4" stroke="#FFD8E4" stroke-linecap="round" stroke-width="1.5"></path>
  <path d="m6 12 -1.5 -1.5M2 8l0.5 0.5" stroke="#FFD8E4" stroke-linecap="round" stroke-width="1.5"></path>
</svg>