<svg viewBox="0 0 24 24" fill="none" xmlns="http://www.w3.org/2000/svg" id="Star--Streamline-Solar-Ar" height="24" width="24">
  <desc>
    Star Streamline Icon: https://streamlinehq.com
  </desc>
  <path d="M9.15316 5.40838C10.4198 3.13613 11.0531 2 12 2c0.9469 0 1.5802 1.13612 2.8468 3.40837l0.3277 0.58786c0.36 0.6457 0.5399 0.96856 0.8206 1.18158 0.2806 0.21302 0.63 0.29209 1.329 0.45024l0.6364 0.14398c2.4596 0.55653 3.6895 0.83479 3.9821 1.7757 0.2926 0.94087 -0.5458 1.92137 -2.2227 3.88217l-0.4338 0.5073c-0.4765 0.5572 -0.7148 0.8358 -0.822 1.1805 -0.1071 0.3447 -0.0711 0.7164 0.0009 1.4599l0.0656 0.6768c0.2535 2.6162 0.3803 3.9243 -0.3857 4.5058 -0.7661 0.5815 -1.9176 0.0513 -4.2206 -1.009l-0.5958 -0.2744c-0.6544 -0.3013 -0.9816 -0.452 -1.3285 -0.452s-0.6741 0.1507 -1.3285 0.452l-0.5958 0.2744c-2.30302 1.0603 -3.45452 1.5905 -4.22055 1.009 -0.76603 -0.5815 -0.63927 -1.8896 -0.38575 -4.5058l0.06558 -0.6768c0.07205 -0.7435 0.10807 -1.1152 0.00088 -1.4599 -0.10718 -0.3447 -0.34543 -0.6233 -0.82194 -1.1805l-0.43382 -0.5073c-1.67685 -1.9608 -2.51528 -2.9413 -2.22268 -3.88217 0.2926 -0.94091 1.52244 -1.21917 3.98212 -1.7757l0.63635 -0.14398c0.69896 -0.15815 1.04844 -0.23722 1.32905 -0.45024s0.46059 -0.53587 0.82053 -1.18158l0.32769 -0.58785Z" stroke="#FFD8E4" stroke-width="1.5"></path>
</svg>