<svg xmlns="http://www.w3.org/2000/svg" viewBox="0 0 24 24" fill="none" stroke="#FFD8E4" stroke-linecap="round" stroke-linejoin="round" id="Brand-Tailwind--Streamline-Tabler" height="24" width="24">
  <desc>
    Brand Tailwind Streamline Icon: https://streamlinehq.com
  </desc>
  <path d="M11.667 6C9.177 6 7.623 7.222 7 9.667c0.933 -1.223 2.023 -1.68 3.267 -1.375 0.71 0.174 1.217 0.68 1.778 1.24 0.916 0.912 2 1.968 4.288 1.968 2.49 0 4.044 -1.222 4.667 -3.667 -0.933 1.223 -2.023 1.68 -3.267 1.375 -0.71 -0.174 -1.217 -0.68 -1.778 -1.24C15.039 7.056 13.98 6 11.667 6zm-4 6.5c-2.49 0 -4.044 1.222 -4.667 3.667 0.933 -1.223 2.023 -1.68 3.267 -1.375 0.71 0.174 1.217 0.68 1.778 1.24 0.916 0.912 1.975 1.968 4.288 1.968 2.49 0 4.044 -1.222 4.667 -3.667 -0.933 1.223 -2.023 1.68 -3.267 1.375 -0.71 -0.174 -1.217 -0.68 -1.778 -1.24 -0.916 -0.912 -1.975 -1.968 -4.288 -1.968z" stroke-width="2"></path>
</svg>