<svg role="img" viewBox="0 0 24 24" xmlns="http://www.w3.org/2000/svg" id="Vite--Streamline-Simple-Icons" height="24" width="24">
  <desc>
    Vite Streamline Icon: https://streamlinehq.com
  </desc>
  <title>Vite</title>
  <path d="m8.286 10.578 0.512 -8.657a0.306 0.306 0 0 1 0.247 -0.282L17.377 0.006a0.306 0.306 0 0 1 0.353 0.385l-1.558 5.403a0.306 0.306 0 0 0 0.352 0.385l2.388 -0.46a0.306 0.306 0 0 1 0.332 0.438l-6.79 13.55 -0.123 0.19a0.294 0.294 0 0 1 -0.252 0.14c-0.177 0 -0.35 -0.152 -0.305 -0.369l1.095 -5.301a0.306 0.306 0 0 0 -0.388 -0.355l-1.433 0.435a0.306 0.306 0 0 1 -0.389 -0.354l0.69 -3.375a0.306 0.306 0 0 0 -0.37 -0.36l-2.32 0.536a0.306 0.306 0 0 1 -0.374 -0.316zm14.976 -7.926L17.284 3.74l-0.544 1.887 2.077 -0.4a0.8 0.8 0 0 1 0.84 0.369 0.8 0.8 0 0 1 0.034 0.783L12.9 19.93l-0.013 0.025 -0.015 0.023 -0.122 0.19a0.801 0.801 0 0 1 -0.672 0.37 0.826 0.826 0 0 1 -0.634 -0.302 0.8 0.8 0 0 1 -0.16 -0.67l1.029 -4.981 -1.12 0.34a0.81 0.81 0 0 1 -0.86 -0.262 0.802 0.802 0 0 1 -0.165 -0.67l0.63 -3.08 -2.027 0.468a0.808 0.808 0 0 1 -0.768 -0.233 0.81 0.81 0 0 1 -0.217 -0.6l0.389 -6.57 -7.44 -1.33a0.612 0.612 0 0 0 -0.64 0.906L11.58 23.691a0.612 0.612 0 0 0 1.066 -0.004l11.26 -20.135a0.612 0.612 0 0 0 -0.644 -0.9z" fill="#FFD8E4" stroke-width="1"></path>
</svg>