<svg xmlns="http://www.w3.org/2000/svg" fill="none" viewBox="0 0 96 96" id="Yii--Streamline-Svg-Logos" height="24" width="24">
  <desc>
    Yii Streamline Icon: https://streamlinehq.com
  </desc>
  <path fill="url(#a)" d="M80.2929 1c6.3933 3.25767 11.8842 11.8062 11.609 23.4067-.8357 14.2934-11.199 26.6118-22.4745 37.9612-.6314-13.8409-3.6408-22.6618-8.34-35.0654C56.6507 14.8025 69.6218 1.40011 80.2929 1Z"></path>
  <path fill="url(#b)" d="M45.711 61.8811c3.4329-4.2703 5.8659-8.0731 7.564-11.509 11.6315 6.0814 8.8868 4.9457 14.4966 11.4252.0189.2015.0367.4025.0535.6031.4654 8.9841-6.0882 29.7531-31.8942 32.5993-1.7863-13.9557 4.021-25.8598 9.7801-33.1186Z"></path>
  <path fill="url(#c)" d="M4.18172 9.67639C22.5685 2.40055 42.3572 9.85374 53.7817 25.383c1.1051 1.502 2.1532 3.0623 3.1417 4.6684 1.7852 11.3957.424 17.7246-3.0506 21.0795-2.2847-1.1527-4.7223-2.175-7.3244-3.1202-6.0499-2.1978-11.6331-3.6521-19.607-6.013C8.00692 36.8302 3.3375 20.5944 4.18172 9.67639Z"></path>
  <path fill="url(#d)" d="M56.2202 28.9365c.1206.1873.2398.3732.3576.5619l.1447.2327c.2951.4739.5845.9506.8697 1.433l.0483.0809.0766.1305.0695.1206.2043.3505.0142.0255.2767.4853.0085.0141c.2001.3533.3973.7081.5917 1.0656l.0241.0454.2157.4001.0056.0099.237.4456.0681.1305.1319.254.1618.3135.1561.3037c.1589.315.3163.6299.471.9449l.0397.0781c.2795.5718.5505 1.145.8159 1.7224l.2014.4413.0199.044.1291.2866.1504.3391.0852.1958.1362.3136.0979.2256.2057.4852.0142.034.2199.5279.027.0638c.2341.5704.4611 1.1408.681 1.7154l.0213.0525.1816.481.0114.0269.1049.2838c.1164.315.2313.63.3448.9464l.044.1234c.1249.3533.2483.708.3675 1.0613l.0383.1121c.1121.332.2199.664.3278.996l.0525.1632.0127.0383.1703.5377.0071.0242.1575.5136.1575.5292.0042.0114.1306.4469.0411.1447.0795.2767c.0893.3192.1773.6371.2624.9563l.0639.2384.1234.471.0057.0227c.1504.5789.2923 1.1578.4271 1.7353l.0127.0596.0142.061c.176.7619.3377 1.521.4867 2.2772l.0142.0752c.2298 1.1762.4271 2.3454.5902 3.5046l.0029.0156c.051.3575.0979.7137.1418 1.0698l.0185.1532.0596.5094v.0014l.0511.4711.017.156.0369.3732.0142.1504.0056.061.0454.5122c-4.0621-5.2313-8.9146-8.8366-14.7375-11.6572 4.6992-9.2906 4.0395-15.911 3.1328-21.8077Z"></path>
  <defs>
    <linearGradient id="a" x1="1646.12" x2="1646.12" y1="1" y2="6137.79" gradientUnits="userSpaceOnUse">
      <stop stop-color="#FFD8E4"></stop>
      <stop offset="1" stop-color="#FFD8E4"></stop>
    </linearGradient>
    <linearGradient id="b" x1="2771.91" x2="-280.707" y1="1221.89" y2="3504.17" gradientUnits="userSpaceOnUse">
      <stop stop-color="#FFD8E4"></stop>
      <stop offset=".689" stop-color="#FFD8E4"></stop>
      <stop offset="1" stop-color="#FFD8E4"></stop>
    </linearGradient>
    <linearGradient id="c" x1="4.088" x2="3954.64" y1="286.607" y2="3831.61" gradientUnits="userSpaceOnUse">
      <stop stop-color="#FFD8E4"></stop>
      <stop offset="1" stop-color="#FFD8E4"></stop>
    </linearGradient>
    <linearGradient id="d" x1="509.373" x2="1804.38" y1="1066.11" y2="1584.75" gradientUnits="userSpaceOnUse">
      <stop stop-color="#FFD8E4"></stop>
      <stop offset="1" stop-color="#FFD8E4"></stop>
    </linearGradient>
  </defs>
</svg>